<?xml version="1.0" encoding="utf-8"?>
<!-- Generator: Adobe Illustrator 24.2.1, SVG Export Plug-In . SVG Version: 6.00 Build 0)  -->
<svg version="1.1" id="Layer_1" xmlns="http://www.w3.org/2000/svg" xmlns:xlink="http://www.w3.org/1999/xlink" x="0px" y="0px"
	 viewBox="0 0 557.75 148.59" style="enable-background:new 0 0 557.75 148.59;" xml:space="preserve">
<style type="text/css">
	.st0{fill:#233A83;}
	.st1{fill:#67B433;}
</style>
<path id="path9755" class="st0" d="M445.51,122.26l0.1-9.49h4.11l-0.11,9.49h7v3.09h-7.05l-0.1,10.5c-0.06,2.88-0.06,4.78-0.06,6.07
	c0,2.11,0.62,3.29,2.37,3.29c1.39,0,3.14-0.88,4.11-1.49l1.34,2.67c-1.69,1.13-4.17,2.2-6.43,2.2c-3.96,0-5.5-2.46-5.5-6.52
	c0-1.69,0-3.81,0.06-7.36l0.1-9.37h-4.37v-3.09H445.51L445.51,122.26z M462.1,122.25h4.2l-0.04,4.96l0.1,0.11
	c0.88-2.31,3.39-5.79,7.1-5.79c0.88,0,1.65,0.15,2.2,0.33l-1.23,3.92c-0.42-0.11-1.03-0.26-1.6-0.26c-1.69,0-4.42,1.4-6.64,5.51
	l-0.2,16.84h-4.1L462.1,122.25L462.1,122.25z M490.49,141.74c-1.59,1.96-3.56,3.76-6.07,3.76c-2.83,0-4.59-1.49-4.59-4.37
	c0-4.37,3.71-5.72,10.87-6.65L490.49,141.74L490.49,141.74z M498.3,144.62c-0.68,0.46-1.29,0.87-2.17,0.87
	c-1.59,0-1.86-1.79-1.86-3.65c0-4.53,0.42-9.01,0.42-13.84c0-3.96-2.16-6.47-6.42-6.47c-3.7,0-5.35,0.92-10.49,4.25l1.69,2.67
	c3.76-2.83,5.41-3.54,7.41-3.54c2.73,0,3.91,1.65,3.91,3.86c0,1.08-0.06,2.17-0.1,3.24c-5.62,0.2-14.97,1.9-14.97,9.16
	c0,4.32,2.87,7.42,7.39,7.42c3.3,0,5.78-1.85,7.75-4.29c0.2,2.16,1.49,4.29,3.79,4.29c1.78,0,3.33-0.72,4.76-1.85L498.3,144.62
	L498.3,144.62z M503.5,122.25h4.1l-0.21,25.62h-4.1L503.5,122.25L503.5,122.25z M503.3,112.27h4.42v4.65h-4.42V112.27z
	 M515.68,122.25h4.1l-0.15,4.12h0.1c2.16-3.1,5.64-4.85,8.68-4.85c5.89,0,7.8,3.05,7.8,7.77c0,1.96-0.06,3.92-0.06,5.87l-0.1,12.71
	h-4.1l0.09-11.52c0-2.26,0.05-4.53,0.05-7.05c0-2.78-1.84-4.05-4.66-4.05c-2.67,0-5.04,1.54-7.65,4.73l-0.2,17.9h-4.12
	L515.68,122.25L515.68,122.25z M542.9,143.34c1.44,0.97,3.44,2.16,5.65,2.16c2.27,0,4.98-1.23,4.98-4.11
	c0-6.37-11.87-3.6-11.87-12.18c0-4.83,3.96-7.67,8.63-7.67c2.88,0,5.55,0.88,7.45,2.17l-1.9,2.62c-1.49-0.83-3.08-1.69-4.88-1.69
	c-3,0-5.2,1.23-5.2,4.27c0,5.5,11.87,3.24,11.87,11.92c0,4.88-4.25,7.77-8.47,7.77c-2.98,0-5.71-1.03-8.02-2.54L542.9,143.34"/>
<path id="path9757" class="st1" d="M126.84,108.76c-23.05,0-62.83-15.4-62.83-43.26c0-28.45,40.25-44.15,62.83-44.15
	c0.89,0,2.36,0.04,3.24,0.2l-1.17,1.57c-11.28,0-30.22,5.33-42.08,17.18c-6.82,6.83-10.38,15.41-10.38,24.91
	c0,9.47,3.86,18.07,10.38,24.6c12.15,12.14,30.81,17.18,42.08,17.18l1.17,1.77C128.91,108.76,127.72,108.76,126.84,108.76
	L126.84,108.76z M126.84,118.84c-21.03,0-39.72-4.45-54.83-11.56c-17.18-7.99-37.64-22.81-37.64-42.07
	c0-20.16,21.64-34.98,37.64-42.39c15.1-6.82,33.79-11.25,54.83-11.25c3.56,0,8.43,0.37,10.11,0.53l-1.23,1.84
	c-1.46-0.12-4.15-0.3-5.94-0.3c-20.14,0-38.21,5.33-51.85,13.03c-13.92,8.3-28.44,21.06-28.44,38.54c0,17.17,14.8,30.22,28.44,38.22
	c13.64,8,31.71,13.34,51.85,13.34c1.79,0,4.86-0.21,5.94-0.3l1.17,1.78C135.5,118.42,130.17,118.84,126.84,118.84L126.84,118.84z
	 M119.74,130.4c-26.68,0-69.95-8-97.51-27.86C9.78,93.36,0,81.51,0,65.49c0-16.6,9.18-28.15,22.23-37.63C49.49,8,93.06,0,119.74,0
	c10.97,0,19.88,0.96,24.18,2.1l-1.37,1.75c-3.4-0.5-9.05-0.89-15.7-0.89c-21.34,0-43.28,4.45-61.64,11.85
	c-20.15,8-47.71,25.48-47.71,50.39c0,24.89,27.85,42.37,47.71,50.38c18.37,7.7,40.3,11.85,61.64,11.85c6.85,0,12.69-0.65,15.75-1.16
	l1.45,2.04C139.88,129.21,131.57,130.4,119.74,130.4"/>
<path id="path9759" class="st0" d="M512.1,96.32V34.08h11.86v52.75h33.78v9.49L512.1,96.32L512.1,96.32z M488.99,96.32l-9.78-18.68
	h-31.11l-9.18,18.68h-12.15l32.01-62.24h10.38l31.4,62.24H488.99z M407.49,96.32l-18.08-25.21H374.9v25.21h-11.86V34.08h25.2
	c5.05,0,13.64,0.3,18.37,2.67c5.03,2.67,8.9,7.7,8.9,14.52c0,9.48-6.22,15.41-14.52,17.78l20.16,27.28H407.49L407.49,96.32z
	 M329.25,43.26v53.06h-11.63V43.26h-23.65v-9.18h58.99v9.18H329.25z M273.83,96.32l-37.69-44.17v44.17h-12.11V34.08h11.26
	l37.99,44.74V34.08h11.81v62.24C285.09,96.32,273.83,96.32,273.83,96.32z M162.39,96.32V34.08h45.64v9.18h-33.49v17.2h32.61v8.59
	h-32.61v18.38h33.78v8.9L162.39,96.32L162.39,96.32z M131.87,97.49c-19.56,0-40-9.77-40-32.59c0-14.83,10.37-24.61,22.81-29.34
	c5.64-2.08,13.05-2.97,18.68-2.97c6.82,0,14.22,1.18,20.74,3.55l-4.15,8.9c-4.72-1.78-10.66-2.67-16.87-2.67
	c-6.53,0-14.54,1.78-19.57,5.34c-5.03,4.14-8.29,9.47-8.29,17.48c0,15.09,12.43,22.81,26.67,22.81c6.22,0,13.34-1.18,18.97-3.85
	l4.45,7.71C149.06,95.13,138.99,97.49,131.87,97.49z M463.52,46.24l-10.99,22.22h22.24L463.52,46.24z M400.68,45.64
	c-3.25-2.67-7.4-2.67-12.16-2.67H374.9v19.25h11.56c3.55,0,8,0.3,11.26-1.18c3.55-1.77,5.62-4.15,5.62-8.9
	C403.34,48.9,402.16,46.82,400.68,45.64"/>
</svg>
